<?xml version="1.0" encoding="UTF-8" standalone="no"?><!DOCTYPE svg PUBLIC "-//W3C//DTD SVG 1.1//EN" "http://www.w3.org/Graphics/SVG/1.1/DTD/svg11.dtd"><svg width="100%" height="100%" viewBox="0 0 2032 3125" version="1.1" xmlns="http://www.w3.org/2000/svg" xmlns:xlink="http://www.w3.org/1999/xlink" xml:space="preserve" xmlns:serif="http://www.serif.com/" style="fill-rule:evenodd;clip-rule:evenodd;stroke-linejoin:round;stroke-miterlimit:2;"><path d="M281.452,625.001l-0.202,-0.001c-0,0 -250,-0 -250,-0l-0.202,0.001c-17.166,0.108 -31.048,14.057 -31.048,31.249c0,267.594 0,2169.91 0,2437.5c0,17.191 13.882,31.14 31.048,31.249l0.202,0.001l360.054,-0c301.828,-0 546.875,-245.046 546.875,-546.875l-0,-2031.25c-0,-301.829 -245.047,-546.875 -546.875,-546.875l-360.054,0c-17.192,0 -31.141,13.882 -31.249,31.048l-0.001,0.202c0,0 0,250 0,250l0.001,0.202c0.108,17.166 14.058,31.048 31.249,31.048c92.753,0 360.054,0 360.054,0c128.876,0 233.597,104.244 234.37,232.938l0.005,-0l-0,2032.69c-0,129.355 -105.02,234.375 -234.375,234.375c-0,-0 -25.551,-0 -47.554,-0c-17.259,-0 -31.25,-13.991 -31.25,-31.25c0,-246.778 0,-1878.22 0,-2125c-0,-17.192 -13.882,-31.141 -31.048,-31.249Z" style="fill:#fff;"/><path d="M2000,3125l-360.054,-0c-301.828,-0 -546.875,-245.046 -546.875,-546.875l0,-2031.25c0,-301.829 245.047,-546.875 546.875,-546.875c18.315,0 270.525,0 360.054,0l0.202,0.001l0.187,0.001c5.648,0.069 10.937,1.64 15.488,4.332c2.249,1.326 4.342,2.941 6.22,4.819c1.879,1.878 3.493,3.971 4.819,6.22c2.691,4.549 4.263,9.839 4.332,15.488l0.001,0.195l0.001,0.194c0,106.688 -0,455.812 -0,562.5l-0,0.066c-0.036,17.162 -13.904,31.075 -31.048,31.183l-0.202,0.001l-250,-0l-0.202,-0.001c-17.099,-0.108 -30.939,-13.949 -31.047,-31.047l-0.001,-0.202c-0,-59.875 -0,-190.125 -0,-250c-0,-17.259 -13.991,-31.25 -31.25,-31.25c-22.003,0 -47.554,0 -47.554,0c-128.876,0 -233.597,104.244 -234.37,232.938l-0.005,-0l0,2032.69c0,129.355 105.02,234.375 234.375,234.375c0,-0 267.301,-0 360.054,-0c17.191,0 31.141,13.882 31.249,31.048l0.001,0.202c0,59.875 0,190.125 0,250l-0.001,0.202c-0.108,17.166 -14.057,31.048 -31.249,31.048Z" style="fill:#fff;"/></svg>