<?xml version="1.0" encoding="UTF-8" standalone="no"?>
<!DOCTYPE svg PUBLIC "-//W3C//DTD SVG 1.1//EN" "http://www.w3.org/Graphics/SVG/1.1/DTD/svg11.dtd">
<svg width="100%" height="100%" viewBox="0 0 65 100" version="1.1" xmlns="http://www.w3.org/2000/svg" xmlns:xlink="http://www.w3.org/1999/xlink" xml:space="preserve" xmlns:serif="http://www.serif.com/" style="fill-rule:evenodd;clip-rule:evenodd;stroke-linejoin:round;stroke-miterlimit:2;">
    <g transform="matrix(2.63984,0,0,1.49268,-295.506,-335.999)">
        <g transform="matrix(0.37881,0,0,0.669937,111.941,225.098)">
            <path d="M55,11C55,10.448 54.552,10 54,10C53.296,10 52.478,10 52.478,10C48.354,10 45.003,13.336 44.978,17.454L44.978,17.454L44.978,82.5C44.978,86.639 48.339,90 52.478,90C52.478,90 61.439,90 64.2,90C64.412,90 64.616,90.084 64.766,90.234C64.916,90.384 65,90.588 65,90.8C65,92.673 65,97.327 65,99.2C65,99.412 64.916,99.616 64.766,99.766C64.616,99.916 64.412,100 64.2,100C61.551,100 53.192,100 52.478,100C42.82,100 34.978,92.159 34.978,82.5L34.978,17.5C34.978,7.841 42.82,0 52.478,0L64.2,0C64.412,-0 64.616,0.084 64.766,0.234C64.916,0.384 65,0.588 65,0.8L65,19C65,19.552 64.552,20 64,20C62.084,20 57.916,20 56,20C55.448,20 55,19.552 55,19C55,17.084 55,12.916 55,11Z" style="fill:white;"/>
        </g>
        <g transform="matrix(0.37881,0,0,0.669937,77.187,3.98517)">
            <path d="M102.744,420.05C102.191,420.05 101.744,419.603 101.744,419.05C101.744,410.572 101.744,351.05 101.744,351.05C101.744,350.498 101.296,350.05 100.744,350.05C98.828,350.05 94.66,350.05 92.744,350.05C92.191,350.05 91.744,350.498 91.744,351.05C91.744,359.613 91.744,420.487 91.744,429.05C91.744,429.603 92.191,430.05 92.744,430.05L104.265,430.05C113.924,430.05 121.765,422.209 121.765,412.55L121.765,347.55C121.765,337.892 113.924,330.05 104.265,330.05L92.544,330.05C92.332,330.05 92.128,330.135 91.978,330.285C91.828,330.435 91.744,330.638 91.744,330.85C91.744,332.723 91.744,337.377 91.744,339.25C91.744,339.462 91.828,339.666 91.978,339.816C92.128,339.966 92.332,340.05 92.544,340.05C95.305,340.05 104.265,340.05 104.265,340.05C108.39,340.05 111.741,343.386 111.765,347.504L111.765,347.504L111.765,412.55C111.765,416.69 108.405,420.05 104.265,420.05C104.265,420.05 103.448,420.05 102.744,420.05Z" style="fill:white;"/>
        </g>
    </g>
</svg>
