<?xml version="1.0" encoding="UTF-8" standalone="no"?><!DOCTYPE svg PUBLIC "-//W3C//DTD SVG 1.1//EN" "http://www.w3.org/Graphics/SVG/1.1/DTD/svg11.dtd"><svg width="100%" height="100%" viewBox="0 0 204 313" version="1.1" xmlns="http://www.w3.org/2000/svg" xmlns:xlink="http://www.w3.org/1999/xlink" xml:space="preserve" xmlns:serif="http://www.serif.com/" style="fill-rule:evenodd;clip-rule:evenodd;stroke-linejoin:round;stroke-miterlimit:2;"><path d="M175,62.5c-1.726,-0 -3.125,-1.399 -3.125,-3.125c0,-5.987 0,-19.013 -0,-25c-0,-1.726 -1.399,-3.125 -3.125,-3.125c-2.2,0 -4.755,0 -4.755,0c-12.888,0 -23.36,10.424 -23.437,23.294l-0.001,-0l0,203.269c0,12.935 10.502,23.437 23.438,23.437c-0,0 26.73,0 36.005,0c1.726,0 3.125,1.399 3.125,3.125c0,5.987 0,19.013 0,25c-0,1.726 -1.399,3.125 -3.125,3.125c-8.953,0 -34.174,0 -36.005,0c-30.183,0 -54.688,-24.505 -54.688,-54.687l0,-203.125c0,-30.183 24.505,-54.688 54.688,-54.688c1.831,0 27.052,0 36.005,0c0.829,0 1.624,0.329 2.21,0.915c0.586,0.586 0.915,1.381 0.915,2.21c0,10.669 0,45.581 0,56.25c0,1.726 -1.399,3.125 -3.125,3.125c-5.987,0 -19.013,0 -25,0Z" style="fill:#fff;"/><path d="M34.375,281.25c-1.726,-0 -3.125,-1.399 -3.125,-3.125c-0,-24.678 0,-187.822 -0,-212.5c-0,-1.726 -1.399,-3.125 -3.125,-3.125c-5.987,0 -19.013,0 -25,0c-1.726,0 -3.125,1.399 -3.125,3.125c-0,26.759 -0,216.991 -0,243.75c0,1.726 1.399,3.125 3.125,3.125l36.005,0c30.183,0 54.688,-24.505 54.688,-54.687l-0,-203.125c-0,-30.183 -24.505,-54.688 -54.688,-54.688c-1.831,0 -27.052,0 -36.005,0c-1.726,0 -3.125,1.399 -3.125,3.125c-0,5.987 -0,19.013 -0,25c0,1.726 1.399,3.125 3.125,3.125c9.275,0 36.005,0 36.005,0c12.888,0 23.36,10.424 23.437,23.294l0.001,-0l-0,203.269c-0,12.935 -10.502,23.437 -23.438,23.437c0,0 -2.555,0 -4.755,0Z" style="fill:#fff;"/></svg>